<?xml version="1.0" encoding="utf-8" standalone="no"?>
<!DOCTYPE svg PUBLIC "-//W3C//DTD SVG 1.1//EN"
  "http://www.w3.org/Graphics/SVG/1.1/DTD/svg11.dtd">
<svg xmlns:xlink="http://www.w3.org/1999/xlink" width="661.3425pt" height="394.2pt" viewBox="0 0 661.3425 394.2" xmlns="http://www.w3.org/2000/svg" version="1.1">
 <metadata>
  <rdf:RDF xmlns:dc="http://purl.org/dc/elements/1.1/" xmlns:cc="http://creativecommons.org/ns#" xmlns:rdf="http://www.w3.org/1999/02/22-rdf-syntax-ns#">
   <cc:Work>
    <dc:type rdf:resource="http://purl.org/dc/dcmitype/StillImage"/>
    <dc:date>2026-05-02T06:13:59.583217</dc:date>
    <dc:format>image/svg+xml</dc:format>
    <dc:creator>
     <cc:Agent>
      <dc:title>Matplotlib v3.10.8, https://matplotlib.org/</dc:title>
     </cc:Agent>
    </dc:creator>
   </cc:Work>
  </rdf:RDF>
 </metadata>
 <defs>
  <style type="text/css">*{stroke-linejoin: round; stroke-linecap: butt}</style>
 </defs>
 <g id="figure_1">
  <g id="patch_1">
   <path d="M 0 394.2 
L 661.3425 394.2 
L 661.3425 0 
L 0 0 
z
" style="fill: #ffffff"/>
  </g>
  <g id="axes_1">
   <g id="patch_2">
    <path d="M 143.057925 189.504 
C 192.872497 189.504 183.815302 102.15 233.629875 102.15 
L 233.629875 90.756 
C 183.815302 90.756 192.872497 178.11 143.057925 178.11 
z
" clip-path="url(#p01bffc4e1d)" style="fill: #8aa6a3; opacity: 0.22"/>
   </g>
   <g id="patch_3">
    <path d="M 143.057925 189.504 
C 192.872497 189.504 183.815302 189.504 233.629875 189.504 
L 233.629875 178.11 
C 183.815302 178.11 192.872497 178.11 143.057925 178.11 
z
" clip-path="url(#p01bffc4e1d)" style="fill: #2f6f7e; opacity: 0.22"/>
   </g>
   <g id="patch_4">
    <path d="M 143.057925 189.504 
C 192.872497 189.504 183.815302 276.858 233.629875 276.858 
L 233.629875 265.464 
C 183.815302 265.464 192.872497 178.11 143.057925 178.11 
z
" clip-path="url(#p01bffc4e1d)" style="fill: #174a63; opacity: 0.22"/>
   </g>
   <g id="patch_5">
    <path d="M 350.079525 112.7844 
C 431.917751 112.7844 417.038074 112.7844 498.8763 112.7844 
L 498.8763 80.1216 
C 417.038074 80.1216 431.917751 80.1216 350.079525 80.1216 
z
" clip-path="url(#p01bffc4e1d)" style="fill: #d6a24d; opacity: 0.54"/>
   </g>
   <g id="patch_6">
    <path d="M 350.079525 186.0858 
C 431.917751 186.0858 417.038074 109.3662 498.8763 109.3662 
L 498.8763 83.5398 
C 417.038074 83.5398 431.917751 160.2594 350.079525 160.2594 
z
" clip-path="url(#p01bffc4e1d)" style="fill: #d6a24d; opacity: 0.54"/>
   </g>
   <g id="patch_7">
    <path d="M 350.079525 202.797 
C 431.917751 202.797 417.038074 192.1626 498.8763 192.1626 
L 498.8763 175.4514 
C 417.038074 175.4514 431.917751 186.0858 350.079525 186.0858 
z
" clip-path="url(#p01bffc4e1d)" style="fill: #7f9f4e; opacity: 0.54"/>
   </g>
   <g id="patch_8">
    <path d="M 350.079525 272.3004 
C 431.917751 272.3004 417.038074 195.5808 498.8763 195.5808 
L 498.8763 172.0332 
C 417.038074 172.0332 431.917751 248.7528 350.079525 248.7528 
z
" clip-path="url(#p01bffc4e1d)" style="fill: #7f9f4e; opacity: 0.54"/>
   </g>
   <g id="patch_9">
    <path d="M 350.079525 291.2904 
C 431.917751 291.2904 417.038074 280.656 498.8763 280.656 
L 498.8763 261.666 
C 417.038074 261.666 431.917751 272.3004 350.079525 272.3004 
z
" clip-path="url(#p01bffc4e1d)" style="fill: #b85b4b; opacity: 0.54"/>
   </g>
   <g id="text_1">
    <text style="font-weight: 700; font-size: 16px; font-family: 'DejaVu Sans'; text-anchor: middle; fill: #111820" x="330.67125" y="25.0545" transform="rotate(-0 330.67125 25.0545)">A/B/C Curriculum and Evaluation Subsets</text>
   </g>
   <g id="text_2">
    <text style="font-weight: 700; font-size: 11px; font-family: 'DejaVu Sans'; text-anchor: middle; fill: #172026" x="291.8547" y="54.675" transform="rotate(-0 291.8547 54.675)">Training phases</text>
   </g>
   <g id="text_3">
    <text style="font-weight: 700; font-size: 11px; font-family: 'DejaVu Sans'; text-anchor: middle; fill: #172026" x="563.57055" y="54.675" transform="rotate(-0 563.57055 54.675)">Stage evaluation subsets</text>
   </g>
   <g id="text_4">
    <text style="font-size: 9px; font-family: 'DejaVu Sans'; text-anchor: middle; fill: #4f5b62" x="330.67125" y="370.368281" transform="rotate(-0 330.67125 370.368281)">Headline evaluation uses full eval_overall_numeric on testmini (n=456); stage subsets are reported as secondary diagnostics.</text>
   </g>
   <g id="patch_10">
    <path d="M 44.722665 221.787 
L 137.882385 221.787 
Q 149.52735 221.787 149.52735 214.9506 
L 149.52735 152.6634 
Q 149.52735 145.827 137.882385 145.827 
L 44.722665 145.827 
Q 33.0777 145.827 33.0777 152.6634 
L 33.0777 214.9506 
Q 33.0777 221.787 44.722665 221.787 
z
" clip-path="url(#p01bffc4e1d)" style="fill: #eef1f3; stroke: #2f3b42; stroke-width: 1.2; stroke-linejoin: miter"/>
   </g>
   <g id="patch_11">
    <path d="M 238.805415 127.7865 
L 344.903985 127.7865 
Q 356.54895 127.7865 356.54895 120.9501 
L 356.54895 71.9559 
Q 356.54895 65.1195 344.903985 65.1195 
L 238.805415 65.1195 
Q 227.16045 65.1195 227.16045 71.9559 
L 227.16045 120.9501 
Q 227.16045 127.7865 238.805415 127.7865 
z
" clip-path="url(#p01bffc4e1d)" style="fill: #8aa6a3; stroke: #2f3b42; stroke-width: 1.2; stroke-linejoin: miter"/>
   </g>
   <g id="patch_12">
    <path d="M 238.805415 215.1405 
L 344.903985 215.1405 
Q 356.54895 215.1405 356.54895 208.3041 
L 356.54895 159.3099 
Q 356.54895 152.4735 344.903985 152.4735 
L 238.805415 152.4735 
Q 227.16045 152.4735 227.16045 159.3099 
L 227.16045 208.3041 
Q 227.16045 215.1405 238.805415 215.1405 
z
" clip-path="url(#p01bffc4e1d)" style="fill: #2f6f7e; stroke: #2f3b42; stroke-width: 1.2; stroke-linejoin: miter"/>
   </g>
   <g id="patch_13">
    <path d="M 238.805415 302.4945 
L 344.903985 302.4945 
Q 356.54895 302.4945 356.54895 295.6581 
L 356.54895 246.6639 
Q 356.54895 239.8275 344.903985 239.8275 
L 238.805415 239.8275 
Q 227.16045 239.8275 227.16045 246.6639 
L 227.16045 295.6581 
Q 227.16045 302.4945 238.805415 302.4945 
z
" clip-path="url(#p01bffc4e1d)" style="fill: #174a63; stroke: #2f3b42; stroke-width: 1.2; stroke-linejoin: miter"/>
   </g>
   <g id="patch_14">
    <path d="M 504.05184 127.7865 
L 623.08926 127.7865 
Q 634.734225 127.7865 634.734225 120.9501 
L 634.734225 71.9559 
Q 634.734225 65.1195 623.08926 65.1195 
L 504.05184 65.1195 
Q 492.406875 65.1195 492.406875 71.9559 
L 492.406875 120.9501 
Q 492.406875 127.7865 504.05184 127.7865 
z
" clip-path="url(#p01bffc4e1d)" style="fill: #d6a24d; stroke: #2f3b42; stroke-width: 1.2; stroke-linejoin: miter"/>
   </g>
   <g id="patch_15">
    <path d="M 504.05184 215.1405 
L 623.08926 215.1405 
Q 634.734225 215.1405 634.734225 208.3041 
L 634.734225 159.3099 
Q 634.734225 152.4735 623.08926 152.4735 
L 504.05184 152.4735 
Q 492.406875 152.4735 492.406875 159.3099 
L 492.406875 208.3041 
Q 492.406875 215.1405 504.05184 215.1405 
z
" clip-path="url(#p01bffc4e1d)" style="fill: #7f9f4e; stroke: #2f3b42; stroke-width: 1.2; stroke-linejoin: miter"/>
   </g>
   <g id="patch_16">
    <path d="M 504.05184 302.4945 
L 623.08926 302.4945 
Q 634.734225 302.4945 634.734225 295.6581 
L 634.734225 246.6639 
Q 634.734225 239.8275 623.08926 239.8275 
L 504.05184 239.8275 
Q 492.406875 239.8275 492.406875 246.6639 
L 492.406875 295.6581 
Q 492.406875 302.4945 504.05184 302.4945 
z
" clip-path="url(#p01bffc4e1d)" style="fill: #b85b4b; stroke: #2f3b42; stroke-width: 1.2; stroke-linejoin: miter"/>
   </g>
   <g id="text_5">
    <text style="font-size: 10.5px; font-family: 'DejaVu Sans'; fill: #172026" transform="translate(57.878892 180.825492)">Training split</text>
    <text style="font-size: 10.5px; font-family: 'DejaVu Sans'; fill: #172026" transform="translate(50.49608 192.583195)">MathVista TEST</text>
   </g>
   <g id="text_6">
    <text style="font-size: 10px; font-family: 'DejaVu Sans'; fill: #ffffff" transform="translate(271.916419 93.613469)">Phase A</text>
    <text style="font-size: 10px; font-family: 'DejaVu Sans'; fill: #ffffff" transform="translate(260.469544 104.811281)">Stage 1 only</text>
   </g>
   <g id="text_7">
    <text style="font-size: 10px; font-family: 'DejaVu Sans'; fill: #ffffff" transform="translate(271.906262 175.368562)">Phase B</text>
    <text style="font-size: 10px; font-family: 'DejaVu Sans'; fill: #ffffff" transform="translate(259.932825 186.566375)">70% Stage 1</text>
    <text style="font-size: 10px; font-family: 'DejaVu Sans'; fill: #ffffff" transform="translate(259.932825 197.764187)">30% Stage 2</text>
   </g>
   <g id="text_8">
    <text style="font-size: 10px; font-family: 'DejaVu Sans'; fill: #ffffff" transform="translate(271.845325 262.722562)">Phase C</text>
    <text style="font-size: 10px; font-family: 'DejaVu Sans'; fill: #ffffff" transform="translate(259.932825 273.920375)">60% Stage 2</text>
    <text style="font-size: 10px; font-family: 'DejaVu Sans'; fill: #ffffff" transform="translate(259.932825 285.118187)">40% Stage 3</text>
   </g>
   <g id="text_9">
    <text style="font-size: 10px; font-family: 'DejaVu Sans'; fill: #ffffff" transform="translate(544.351019 88.014562)">Stage 1</text>
    <text style="font-size: 10px; font-family: 'DejaVu Sans'; fill: #ffffff" transform="translate(529.798675 99.212375)">easy numeric</text>
    <text style="font-size: 10px; font-family: 'DejaVu Sans'; fill: #ffffff" transform="translate(546.668206 110.410187)">n=195</text>
   </g>
   <g id="text_10">
    <text style="font-size: 10px; font-family: 'DejaVu Sans'; fill: #ffffff" transform="translate(544.351019 175.368562)">Stage 2</text>
    <text style="font-size: 10px; font-family: 'DejaVu Sans'; fill: #ffffff" transform="translate(530.27055 186.566375)">float numeric</text>
    <text style="font-size: 10px; font-family: 'DejaVu Sans'; fill: #ffffff" transform="translate(546.668206 197.764187)">n=287</text>
   </g>
   <g id="text_11">
    <text style="font-size: 10px; font-family: 'DejaVu Sans'; fill: #ffffff" transform="translate(544.351019 262.722562)">Stage 3</text>
    <text style="font-size: 10px; font-family: 'DejaVu Sans'; fill: #ffffff" transform="translate(530.128362 273.920375)">hard numeric</text>
    <text style="font-size: 10px; font-family: 'DejaVu Sans'; fill: #ffffff" transform="translate(546.668206 285.118187)">n=119</text>
   </g>
   <g id="text_12">
    <text style="font-size: 9.5px; font-family: 'DejaVu Sans'; text-anchor: middle; fill: #26343a" x="424.477912" y="87.680406" transform="rotate(-0 424.477912 87.680406)">100%</text>
   </g>
   <g id="text_13">
    <text style="font-size: 9.5px; font-family: 'DejaVu Sans'; text-anchor: middle; fill: #26343a" x="424.477912" y="126.040206" transform="rotate(-0 424.477912 126.040206)">70%</text>
   </g>
   <g id="text_14">
    <text style="font-size: 9.5px; font-family: 'DejaVu Sans'; text-anchor: middle; fill: #26343a" x="424.477912" y="180.351606" transform="rotate(-0 424.477912 180.351606)">30%</text>
   </g>
   <g id="text_15">
    <text style="font-size: 9.5px; font-family: 'DejaVu Sans'; text-anchor: middle; fill: #26343a" x="424.477912" y="213.394206" transform="rotate(-0 424.477912 213.394206)">60%</text>
   </g>
   <g id="text_16">
    <text style="font-size: 9.5px; font-family: 'DejaVu Sans'; text-anchor: middle; fill: #26343a" x="424.477912" y="267.705606" transform="rotate(-0 424.477912 267.705606)">40%</text>
   </g>
  </g>
 </g>
 <defs>
  <clipPath id="p01bffc4e1d">
   <rect x="7.2" y="7.2" width="646.9425" height="379.8"/>
  </clipPath>
 </defs>
</svg>
